<?xml version="1.0" encoding="UTF-8" standalone="no"?>
<!DOCTYPE svg PUBLIC "-//W3C//DTD SVG 1.1//EN" "http://www.w3.org/Graphics/SVG/1.1/DTD/svg11.dtd">
<svg width="23px" height="23px" version="1.1" xmlns="http://www.w3.org/2000/svg" xmlns:xlink="http://www.w3.org/1999/xlink" xml:space="preserve" xmlns:serif="http://www.serif.com/" style="fill-rule:evenodd;clip-rule:evenodd;stroke-linejoin:round;stroke-miterlimit:2;">
    <g transform="matrix(1,0,0,1,-63,-98)">
        <g transform="matrix(1.21053,0,0,1.21053,24.2632,43.5263)">
            <rect id="folder_closed" x="32" y="45" width="19" height="19" style="fill:none;"/>
            <g id="folder_closed1" serif:id="folder_closed">
                <g id="Folder-back" serif:id="Folder back" transform="matrix(0.826087,0,0,0.826087,7.21739,9.47826)">
                    <path d="M49,52C49,50.895 48.105,50 47,50C45.909,50 44.59,50 43.633,50C42.843,50 42.127,49.535 41.806,48.813C41.715,48.607 41.619,48.393 41.528,48.187C41.207,47.465 40.491,47 39.701,47C38.662,47 37.189,47 36,47C35.47,47 34.961,47.211 34.586,47.586C34.211,47.961 34,48.47 34,49C34,51.871 34,57.129 34,60C34,60.53 34.211,61.039 34.586,61.414C34.961,61.789 35.47,62 36,62L47,62C48.105,62 49,61.105 49,60C49,57.78 49,54.22 49,52Z" style="fill:url(#_Linear1);"/>
                    <path d="M49.5,52L49.5,60C49.5,61.381 48.381,62.5 47,62.5L36,62.5C35.337,62.5 34.701,62.237 34.232,61.768C33.763,61.299 33.5,60.663 33.5,60L33.5,49C33.5,48.337 33.763,47.701 34.232,47.232C34.701,46.763 35.337,46.5 36,46.5L39.701,46.5C40.688,46.5 41.584,47.082 41.985,47.984L42.263,48.609C42.504,49.151 43.041,49.5 43.634,49.5L47,49.5C48.381,49.5 49.5,50.619 49.5,52ZM49,52C49,50.895 48.105,50 47,50L43.633,50C42.843,50 42.127,49.535 41.806,48.813L41.528,48.187C41.207,47.465 40.491,47 39.701,47L36,47C35.47,47 34.961,47.211 34.586,47.586C34.211,47.961 34,48.47 34,49L34,60C34,60.53 34.211,61.039 34.586,61.414C34.961,61.789 35.47,62 36,62L47,62C48.105,62 49,61.105 49,60L49,52Z" style="fill:rgb(68,68,68);"/>
                </g>
                <g id="Folder-front" serif:id="Folder front" transform="matrix(0.826087,0,0,0.901186,-20.8696,13.834)">
                    <path d="M83,42.71C83,41.766 82.164,41 81.135,41L69.865,41C68.836,41 68,41.766 68,42.71L68,50.29C68,51.234 68.836,52 69.865,52L81.135,52C82.164,52 83,51.234 83,50.29L83,42.71Z" style="fill:url(#_Linear2);"/>
                    <path d="M83.5,42.71L83.5,50.29C83.5,51.487 82.44,52.458 81.135,52.458L69.865,52.458C68.56,52.458 67.5,51.487 67.5,50.29L67.5,42.71C67.5,41.513 68.56,40.542 69.865,40.542L81.135,40.542C82.44,40.542 83.5,41.513 83.5,42.71ZM83,42.71C83,41.766 82.164,41 81.135,41L69.865,41C68.836,41 68,41.766 68,42.71L68,50.29C68,51.234 68.836,52 69.865,52L81.135,52C82.164,52 83,51.234 83,50.29L83,42.71Z" style="fill:rgb(68,68,68);"/>
                </g>
            </g>
        </g>
    </g>
    <defs>
        <linearGradient id="_Linear1" x1="0" y1="0" x2="1" y2="0" gradientUnits="userSpaceOnUse" gradientTransform="matrix(1.04095e-15,17,-17,1.04095e-15,38,46)"><stop offset="0" style="stop-color:rgb(155,155,155);stop-opacity:1"/><stop offset="1" style="stop-color:rgb(132,132,132);stop-opacity:1"/></linearGradient>
        <linearGradient id="_Linear2" x1="0" y1="0" x2="1" y2="0" gradientUnits="userSpaceOnUse" gradientTransform="matrix(1.04095e-15,12.4667,-17,7.63363e-16,72,40.2667)"><stop offset="0" style="stop-color:rgb(214,214,214);stop-opacity:1"/><stop offset="1" style="stop-color:rgb(172,172,172);stop-opacity:1"/></linearGradient>
    </defs>
</svg>
